# xmcd
#
# Track frame offsets:
#	150
#	11616
#	25437
#	38824
#	50297
#	62669
#	76589
#	90157
#	102579
#	115371
#	126614
#	138449
#	150270
#	163334
#	173851
#	184750
#
# Disc length: 2636 seconds
# Revision: 0
# Processed by: cddbd v1.5.2PL0 Copyright (c) Steve Scherf et al.
# Submitted via: dBpowerAMP V12.0
#
DISCID=cc0a4a10
DTITLE=The Big Three Trio - The Poet Of The Blues disc 01 The Big Three Trio
DYEAR=2011
DGENRE=Blues
TTITLE0=Big 3 Boogie
TTITLE1=If The Sea Was Whiskey
TTITLE2=I Ain't Gonna Be Your Monkey Man
TTITLE3=88 Boogie
TTITLE4=Money Tree Blues
TTITLE5=Big 3 Stomp
TTITLE6=Since My Baby Gone
TTITLE7=Hard Notch Boogie Beat
TTITLE8=No One To Love Me
TTITLE9=Don't Let That Music Die 
TTITLE10=It's All Over Now
TTITLE11=Tell That Woman
TTITLE12=Got You On My Mind
TTITLE13=You Don't Love Me No More
TTITLE14=Come Here Baby
TTITLE15=Signifying Monkey
EXTD=
EXTT0=
EXTT1=
EXTT2=
EXTT3=
EXTT4=
EXTT5=
EXTT6=
EXTT7=
EXTT8=
EXTT9=
EXTT10=
EXTT11=
EXTT12=
EXTT13=
EXTT14=
EXTT15=
PLAYORDER=
